<?xml version="1.0" encoding="UTF-8"?>
<svg id="Layer_1" xmlns="http://www.w3.org/2000/svg" xmlns:xlink="http://www.w3.org/1999/xlink" viewBox="0 0 1633.68 343.55">
  <defs>
    <style>
      .cls-1 {
        fill: none;
      }

      .cls-2 {
        font-family: AtAero-Medium, 'At Aero';
        font-size: 73.13px;
        font-weight: 500;
      }

      .cls-3 {
        fill: #fff;
      }

      .cls-4 {
        letter-spacing: 0em;
      }

      .cls-5 {
        clip-path: url(#clippath);
      }
    </style>
    <clipPath id="clippath">
      <rect class="cls-1" width="643.37" height="193.93"/>
    </clipPath>
  </defs>
  <path d="M1079.47,302.81c-4.15-4.15-4.15-10.87,0-15.02,4.15-4.15,10.87-4.15,15.02,0,4.15,4.15,4.15,10.87,0,15.02s-10.87,4.15-15.02,0Z"/>
  <path d="M1104.68,340.21h-34.7c-7.93,0-14.35-6.42-14.35-14.35h49.05v14.35Z"/>
  <path d="M1055.63,325.87c-7.93,0-14.35-6.42-14.35-14.35v-33.26h14.35v47.61Z"/>
  <path d="M1069.64,248.45h34.7c7.93,0,14.35,6.42,14.35,14.35h-49.05v-14.35Z"/>
  <path d="M1118.69,262.8c7.93,0,14.35,6.42,14.35,14.35v33.26h-14.35v-47.61Z"/>
  <g class="cls-5">
    <g>
      <path class="cls-3" d="M60.95,193.93H28.13c-7.77,0-14.06-6.09-14.06-13.6h46.89v13.6Z"/>
      <path class="cls-3" d="M14.06,180.33h-1.18C5.77,180.33,0,174.75,0,167.87v-32.88h14.06v45.34h0Z"/>
      <path class="cls-3" d="M582.42,0h32.82c7.77,0,14.06,6.09,14.06,13.6h-46.89V0Z"/>
      <path class="cls-3" d="M629.3,13.6h1.18c7.11,0,12.88,5.57,12.88,12.45v32.88h-14.06V13.6h0Z"/>
      <path class="cls-3" d="M398.91,75.29c-3.59-6-8.23-10.54-14.19-13.88-6.03-3.38-12.89-5.09-20.39-5.09s-14.51,1.71-20.54,5.09c-5.92,3.32-10.65,8.09-14.05,14.21-3.32,6.12-4.93,12.85-4.93,20.59s1.66,14.71,4.93,20.74c3.33,6.14,8.01,10.97,13.89,14.36,5.88,3.38,12.58,5.09,19.93,5.09,16.26,0,21.5-10.36,22.6-14.64,14.98-5.87,17.86-19.81,17.86-26.61,0-7.26-1.72-13.94-5.11-19.87ZM362.78,124.57c-8.43-.88-23.62-6.35-23.62-28.05,0-5.53,1.04-10.38,3.17-14.79,2.12-4.25,5.14-7.56,8.97-9.85,4.1-2.44,8.47-3.63,13.34-3.63,7.32,0,13.41,2.67,18.1,7.96,4.7,5.28,7.08,12.67,7.08,21.97,0,8.09-.99,16.67-3.67,23.6,0,0-10.83,4.11-23.38,2.8Z"/>
      <path class="cls-3" d="M294.2,68.7c-.87-9.49-10.24-12.37-14.33-12.37-14.48,0-24.68,13.4-26.51,18.18-1.61-4.98-4.39-9.14-8.31-12.39-4.63-3.84-11.1-5.79-16.48-5.79-14.82,0-23.91,11.82-26.43,16.66l-.83-15.15h-13.05v77.06h14.03v-44.39c2.97-7.45,12.57-22.26,24.87-22.26,3.84,0,7.14,1.75,9.81,5.19,2.67,3.58,4.18,8.11,4.18,13.46v48.01h14.03v-46.11c4.32-7.43,8.53-12.59,12.85-15.76,4.32-3.17,9.26-5.09,14.67-5.39,5.89-.33,11.49,1.06,11.49,1.06v66.2h14.03v-46.63c0-10.44-4.32-17.03-14.03-19.58h0Z"/>
      <path class="cls-3" d="M74.98,27.74h-14.03v107.15h14.03V27.74Z"/>
      <path class="cls-3" d="M164.46,73.94c-3.22-5.6-7.59-9.84-13.38-12.95-5.84-3.14-12.35-4.67-19.91-4.67s-14.84,1.67-20.86,4.98c-6.09,3.41-10.8,8.12-14.01,14.02-3.3,5.93-4.97,12.81-4.97,20.45,0,14.69,10.17,23.15,17.86,25.99,3.57,12.21,15.15,14.64,23.91,14.64,20.71,0,33.87-15.94,35.22-23.66h-14.36c-3.05,6.57-11.44,10.67-22.99,11.5-4.61.33-13.68.9-21.77-2.47-2.73-6.66-3.38-14.04-3.38-21.27h63.31s.15-2.46.15-7.45c0-7.1-1.62-13.53-4.83-19.1ZM106.36,91.66c.89-7.3,3.44-12.89,7.77-17.07,4.45-4.3,9.97-6.4,16.88-6.4s12.89,2.25,17.33,6.68c4.12,4.41,6.29,10.06,6.47,16.79h-48.45Z"/>
      <path class="cls-3" d="M422.36,73.85v13.03c0-5.14,2.2-9.52,0-13.03Z"/>
      <path class="cls-3" d="M479.3,68.7v66.2h14.03v-46.62c0-10.44-4.32-17.03-14.03-19.58Z"/>
      <path class="cls-3" d="M464.96,56.33c-16.15-1.02-26.9,11.79-28.73,16.57l-.83-15.06h-13.05v77.06h14.03v-44.39c9.86-21.82,26-22.58,31.4-22.88,5.89-.33,11.49,1.06,11.49,1.06-.87-9.49-10.24-12.11-14.33-12.37h0Z"/>
      <path class="cls-3" d="M566.78,58.85l-23.91,76.05-23.9-76.05h-15.08l23.91,76.05h15.07l-11.64,34.87h14.93l35.56-110.92h-14.94Z"/>
    </g>
  </g>
  <text class="cls-2" transform="translate(1164.12 323.81)"><tspan x="0" y="0">CascadeF</tspan><tspan class="cls-4" x="346.85" y="0">l</tspan><tspan x="367.98" y="0">ow</tspan></text>
</svg>