<?xml version="1.0" encoding="UTF-8"?>
<svg id="Layer_1" xmlns="http://www.w3.org/2000/svg" viewBox="0 0 562.99 91.76">
  <defs>
    <style>
      .cls-1 {
        fill: #fff;
      }
    </style>
  </defs>
  <path class="cls-1" d="M38.19,54.36c-4.15-4.15-4.15-10.87,0-15.02,4.15-4.15,10.87-4.15,15.02,0,4.15,4.15,4.15,10.87,0,15.02s-10.87,4.15-15.02,0Z"/>
  <path class="cls-1" d="M63.4,91.76H28.7c-7.93,0-14.35-6.42-14.35-14.35h49.05v14.35Z"/>
  <path class="cls-1" d="M14.35,77.41c-7.93,0-14.35-6.42-14.35-14.35V29.8h14.35v47.61Z"/>
  <path class="cls-1" d="M28.36,0h34.7c7.93,0,14.35,6.42,14.35,14.35H28.36V0Z"/>
  <path class="cls-1" d="M77.41,14.35c7.93,0,14.35,6.42,14.35,14.35v33.26h-14.35V14.35Z"/>
  <g>
    <path class="cls-1" d="M120,46.52c0-11.41,7.61-19.16,18.8-19.16,9.14,0,15.58,5.12,16.67,12.8.07.51-.29.8-.73.8h-6.44c-.51,0-.66-.22-.8-.73-.95-4.31-3.95-6.29-8.7-6.29-6.66,0-10.53,4.83-10.53,12.58s3.95,12.43,10.53,12.43c5.05,0,7.9-1.83,9.07-6.36.07-.44.37-.66.8-.66h6.44c.44,0,.8.22.73.66-1.24,7.75-7.53,12.94-17.04,12.94-11.41,0-18.8-7.46-18.8-19.01Z"/>
    <path class="cls-1" d="M160.96,46.52c0-11.63,6.44-19.16,16.53-19.16,4.83,0,9.36,2.34,11.92,6.14h.29v-4.97c0-.44.29-.73.73-.73h6.66c.44,0,.73.29.73.73v30.13h4.02c.44,0,.73.29.73.73v4.97c0,.44-.29.73-.73.73h-5.41c-4.31,0-6.36-1.75-6.36-5.34v-.29h-.29c-2.49,3.73-7.24,6.07-12.29,6.07-10.09,0-16.53-7.46-16.53-19.01ZM179.75,58.95c6.44,0,10.24-4.68,10.24-12.43s-3.88-12.58-10.24-12.58-10.53,4.75-10.53,12.58,4.02,12.43,10.53,12.43Z"/>
    <path class="cls-1" d="M207.03,53.84c-.07-.51.22-.8.66-.8h6.44c.51,0,.66.29.73.66.8,3.95,3.14,5.56,7.75,5.56,3.8,0,6.29-1.76,6.29-4.46,0-2.56-1.54-3.73-5.41-4.46l-5.19-.95c-7.09-1.32-10.46-4.68-10.46-10.9,0-6.73,5.34-11.12,13.82-11.12s13.46,3.95,14.26,10.82c.07.51-.22.8-.66.8h-6.44c-.51,0-.73-.37-.8-.66-.73-3.36-2.63-4.68-6.36-4.68s-5.85,1.54-5.85,4.39c0,2.27,1.02,3.66,4.97,4.39l5.56,1.02c8.04,1.46,10.53,4.61,10.53,10.9,0,7.17-5.12,11.19-14.26,11.19s-14.85-4.17-15.58-11.7Z"/>
    <path class="cls-1" d="M242.35,46.52c0-11.41,7.61-19.16,18.8-19.16,9.14,0,15.58,5.12,16.67,12.8.07.51-.29.8-.73.8h-6.44c-.51,0-.66-.22-.8-.73-.95-4.31-3.95-6.29-8.7-6.29-6.66,0-10.53,4.83-10.53,12.58s3.95,12.43,10.53,12.43c5.05,0,7.9-1.83,9.07-6.36.07-.44.37-.66.8-.66h6.44c.44,0,.8.22.73.66-1.24,7.75-7.53,12.94-17.04,12.94-11.41,0-18.8-7.46-18.8-19.01Z"/>
    <path class="cls-1" d="M283.3,46.52c0-11.63,6.44-19.16,16.53-19.16,4.83,0,9.36,2.34,11.92,6.14h.29v-4.97c0-.44.29-.73.73-.73h6.66c.44,0,.73.29.73.73v30.13h4.02c.44,0,.73.29.73.73v4.97c0,.44-.29.73-.73.73h-5.41c-4.31,0-6.36-1.75-6.36-5.34v-.29h-.29c-2.49,3.73-7.24,6.07-12.29,6.07-10.09,0-16.53-7.46-16.53-19.01ZM302.1,58.95c6.44,0,10.24-4.68,10.24-12.43s-3.88-12.58-10.24-12.58-10.53,4.75-10.53,12.58,4.02,12.43,10.53,12.43Z"/>
    <path class="cls-1" d="M328.93,46.52c0-11.63,6.44-19.16,16.53-19.16,4.83,0,9.36,2.34,11.92,6.14h.29V13.17c0-.44.29-.73.73-.73h6.66c.44,0,.73.29.73.73v51.19c0,.44-.29.73-.73.73h-6.29c-.44,0-.73-.29-.73-.73v-4.9h-.29c-2.49,3.73-7.24,6.07-12.29,6.07-10.09,0-16.53-7.46-16.53-19.01ZM347.73,58.95c6.44,0,10.24-4.68,10.24-12.43s-3.88-12.58-10.24-12.58-10.53,4.75-10.53,12.58,4.02,12.43,10.53,12.43Z"/>
    <path class="cls-1" d="M373.1,46.52c0-11.7,7.39-19.16,18.87-19.16,10.6,0,17.19,7.31,17.19,19.09v1.97c0,.44-.29.73-.73.73h-26.99c.58,6.14,4.24,9.8,10.53,9.8,4.97,0,7.97-1.9,9-4.97.15-.44.37-.59.8-.59h6.44c.51,0,.8.22.73.59-1.32,6.8-7.39,11.55-16.97,11.55-11.48,0-18.87-7.46-18.87-19.01ZM401.19,43.23c-.37-5.78-3.88-9.29-9.21-9.29-6.14,0-9.73,3.22-10.46,9.29h19.67Z"/>
    <path class="cls-1" d="M420.64,64.37v-30.13h-6.36c-.44,0-.73-.29-.73-.73v-4.97c0-.44.29-.73.73-.73h6.36v-4.75c0-6.88,3.73-10.6,10.6-10.6h6.51c.44,0,.73.29.73.73v4.97c0,.44-.29.73-.73.73h-9v8.92h9c.44,0,.73.29.73.73v4.97c0,.44-.29.73-.73.73h-9v30.13c0,.44-.29.73-.73.73h-6.66c-.44,0-.73-.29-.73-.73ZM445.79,13.17c0-.44.29-.73.73-.73h6.66c.44,0,.73.29.73.73v45.49h6.8c.44,0,.73.29.73.73v4.97c0,.44-.29.73-.73.73h-4.32c-6.88,0-10.6-3.73-10.6-10.6V13.17Z"/>
    <path class="cls-1" d="M464.73,46.52c0-11.41,7.61-19.16,18.65-19.16s18.8,7.75,18.8,19.16-7.61,19.01-18.8,19.01-18.65-7.68-18.65-19.01ZM483.38,58.95c6.51,0,10.53-4.68,10.53-12.43s-3.95-12.58-10.53-12.58-10.38,4.75-10.38,12.58,3.88,12.43,10.38,12.43Z"/>
    <path class="cls-1" d="M515.99,64.51l-10.46-35.91c-.15-.51.15-.8.66-.8h6.88c.44,0,.73.22.8.66l7.46,29.98h.29l7.46-29.98c.07-.44.37-.66.8-.66h9.07c.44,0,.73.22.8.66l7.46,29.98h.29l7.46-29.98c.07-.44.37-.66.8-.66h6.51c.51,0,.8.29.66.8l-10.46,35.91c-.15.37-.37.58-.8.58h-9c-.44,0-.73-.22-.8-.66l-7.53-29.25h-.22l-7.53,29.25c-.07.44-.37.66-.8.66h-9c-.44,0-.66-.22-.8-.58Z"/>
  </g>
</svg>