<?xml version="1.0" encoding="UTF-8"?>
<svg id="Layer_1" xmlns="http://www.w3.org/2000/svg" viewBox="0 0 422.81 68.82">
  <defs>
    <style>
      .cls-1 {
        font-family: AtAero-Medium, 'At Aero';
        font-size: 73.13px;
        font-weight: 500;
      }

      .cls-1, .cls-2 {
        fill: #fff;
      }

      .cls-3 {
        letter-spacing: -.01em;
      }
    </style>
  </defs>
  <path class="cls-2" d="M38.19,54.36c-4.15-4.15-4.15-10.87,0-15.02,4.15-4.15,10.87-4.15,15.02,0,4.15,4.15,4.15,10.87,0,15.02s-10.87,4.15-15.02,0Z"/>
  <path class="cls-2" d="M63.4,91.76H28.7c-7.93,0-14.35-6.42-14.35-14.35h49.05v14.35Z"/>
  <path class="cls-2" d="M14.35,77.41c-7.93,0-14.35-6.42-14.35-14.35V29.8h14.35v47.61Z"/>
  <path class="cls-2" d="M28.36,0h34.7c7.93,0,14.35,6.42,14.35,14.35H28.36V0Z"/>
  <path class="cls-2" d="M77.41,14.35c7.93,0,14.35,6.42,14.35,14.35v33.26h-14.35V14.35Z"/>
  <text class="cls-1" transform="translate(117.44 65.1)"><tspan x="0" y="0">cascade</tspan><tspan class="cls-3" x="294.27" y="0">fl</tspan><tspan x="344.73" y="0">ow</tspan></text>
</svg>