<svg height="1em" style="flex:none;line-height:1" viewBox="0 0 24 24" width="1em" xmlns="http://www.w3.org/2000/svg"><title>OpenClaw</title><path d="M12 2C11.2 2 10.5 2.3 10 2.8L7.5 5.3C6.8 6 6.5 7 6.5 8V9.5C6.5 10.3 6.2 11 5.6 11.6L4 13.2C3.4 13.8 3 14.6 3 15.5C3 17.4 4.6 19 6.5 19H7C7.6 19 8 19.4 8 20V21C8 21.6 8.4 22 9 22H15C15.6 22 16 21.6 16 21V20C16 19.4 16.4 19 17 19H17.5C19.4 19 21 17.4 21 15.5C21 14.6 20.6 13.8 20 13.2L18.4 11.6C17.8 11 17.5 10.3 17.5 9.5V8C17.5 7 17.2 6 16.5 5.3L14 2.8C13.5 2.3 12.8 2 12 2z" fill="#E53935"/><path d="M8 8.5C8 8.5 6 7 4.5 8.5C3 10 4.5 12 4.5 12" stroke="#E53935" stroke-width="1.5" stroke-linecap="round" fill="none"/><path d="M6 7C6 7 4 5.5 2.5 7C1 8.5 2.5 10.5 2.5 10.5" stroke="#E53935" stroke-width="1.5" stroke-linecap="round" fill="none"/><path d="M16 8.5C16 8.5 18 7 19.5 8.5C21 10 19.5 12 19.5 12" stroke="#E53935" stroke-width="1.5" stroke-linecap="round" fill="none"/><path d="M18 7C18 7 20 5.5 21.5 7C23 8.5 21.5 10.5 21.5 10.5" stroke="#E53935" stroke-width="1.5" stroke-linecap="round" fill="none"/><circle cx="10" cy="10" r="1" fill="#fff"/><circle cx="14" cy="10" r="1" fill="#fff"/></svg>