<?xml version="1.0" encoding="UTF-8"?>
<svg id="Layer_1" xmlns="http://www.w3.org/2000/svg" viewBox="0 0 356.52 107.47">
  <path d="M33.77,107.47H15.58c-4.31,0-7.79-3.38-7.79-7.54h25.98v7.54Z"/>
  <path d="M7.79,99.93h-.65c-3.94,0-7.14-3.09-7.14-6.9v-18.22h7.79v25.12h0Z"/>
  <path d="M322.75,0h18.19c4.31,0,7.79,3.37,7.79,7.54h-25.98V0Z"/>
  <path d="M348.73,7.54h.65c3.94,0,7.14,3.09,7.14,6.9v18.22h-7.79V7.54h0Z"/>
  <path d="M221.06,41.72c-1.99-3.32-4.56-5.84-7.87-7.69-3.34-1.87-7.14-2.82-11.3-2.82s-8.04.95-11.38,2.82c-3.28,1.84-5.9,4.49-7.79,7.87-1.84,3.39-2.73,7.12-2.73,11.41s.92,8.15,2.73,11.49c1.85,3.4,4.44,6.08,7.7,7.96,3.26,1.87,6.97,2.82,11.05,2.82,9.01,0,11.92-5.74,12.52-8.11,8.3-3.25,9.9-10.98,9.9-14.74,0-4.02-.95-7.72-2.83-11.01ZM201.04,69.03c-4.67-.49-13.09-3.52-13.09-15.54,0-3.06.58-5.75,1.76-8.2,1.18-2.36,2.85-4.19,4.97-5.46,2.27-1.35,4.69-2.01,7.39-2.01,4.05,0,7.43,1.48,10.03,4.41,2.6,2.92,3.92,7.02,3.92,12.17,0,4.49-.55,9.24-2.03,13.08,0,0-6,2.28-12.96,1.55Z"/>
  <path d="M163.03,38.07c-.48-5.26-5.67-6.85-7.94-6.85-8.02,0-13.68,7.43-14.69,10.07-.89-2.76-2.43-5.07-4.6-6.86-2.57-2.13-6.15-3.21-9.13-3.21-8.21,0-13.25,6.55-14.65,9.23l-.46-8.4h-7.23v42.71h7.78v-24.6c1.64-4.13,6.97-12.34,13.78-12.34,2.13,0,3.96.97,5.43,2.87,1.48,1.99,2.31,4.5,2.31,7.46v26.61h7.78v-25.56c2.4-4.12,4.73-6.98,7.12-8.73,2.4-1.76,5.13-2.82,8.13-2.99,3.27-.18,6.37.59,6.37.59v36.69h7.78v-25.84c0-5.78-2.39-9.44-7.78-10.85h0Z"/>
  <path d="M41.55,15.37h-7.78v59.38h7.78V15.37Z"/>
  <path d="M91.13,40.97c-1.78-3.1-4.21-5.45-7.42-7.17-3.24-1.74-6.85-2.59-11.03-2.59s-8.23.93-11.56,2.76c-3.37,1.89-5.99,4.5-7.76,7.77-1.83,3.29-2.76,7.1-2.76,11.33,0,8.14,5.63,12.83,9.9,14.4,1.98,6.77,8.4,8.11,13.25,8.11,11.48,0,18.77-8.83,19.52-13.11h-7.96c-1.69,3.64-6.34,5.92-12.74,6.37-2.56.18-7.58.5-12.07-1.37-1.52-3.69-1.87-7.78-1.87-11.79h35.09s.09-1.37.09-4.13c0-3.94-.9-7.5-2.67-10.59ZM58.94,50.8c.5-4.04,1.9-7.14,4.3-9.46,2.47-2.39,5.53-3.55,9.36-3.55s7.14,1.24,9.6,3.7c2.28,2.44,3.49,5.57,3.59,9.3h-26.85Z"/>
  <path d="M234.05,40.93v7.22c0-2.85,1.22-5.27,0-7.22Z"/>
  <path d="M265.61,38.07v36.69h7.78v-25.84c0-5.78-2.39-9.44-7.78-10.85Z"/>
  <path d="M257.66,31.22c-8.95-.57-14.91,6.53-15.92,9.18l-.46-8.35h-7.23v42.71h7.78v-24.6c5.46-12.09,14.41-12.51,17.4-12.68,3.27-.18,6.37.59,6.37.59-.48-5.26-5.68-6.71-7.94-6.85h0Z"/>
  <path d="M314.08,32.61l-13.25,42.14-13.25-42.14h-8.36l13.25,42.14h8.35l-6.45,19.32h8.27l19.71-61.47h-8.28Z"/>
</svg>